<mxfile host="app.diagrams.net" modified="2022-08-25T09:19:56.960Z" agent="5.0 (Windows NT 10.0; Win64; x64) AppleWebKit/537.36 (KHTML, like Gecko) Chrome/104.0.0.0 Safari/537.36" etag="69N59Mp7jQgUsuTVGc-G" version="20.2.7" type="github">
  <diagram id="UCTBPBXyAgcOPsaWjvLG" name="Trang-1">
    <mxGraphModel dx="1021" dy="1689" grid="1" gridSize="10" guides="1" tooltips="1" connect="1" arrows="1" fold="1" page="1" pageScale="1" pageWidth="827" pageHeight="1169" math="0" shadow="0">
      <root>
        <mxCell id="0" />
        <mxCell id="1" parent="0" />
        <mxCell id="1FAgS64xWaHGTDOJmmW1-8" value="" style="group" vertex="1" connectable="0" parent="1">
          <mxGeometry x="730" y="-100" width="200" height="200" as="geometry" />
        </mxCell>
        <mxCell id="1FAgS64xWaHGTDOJmmW1-3" value="" style="ellipse;whiteSpace=wrap;html=1;" vertex="1" parent="1FAgS64xWaHGTDOJmmW1-8">
          <mxGeometry width="200" height="200" as="geometry" />
        </mxCell>
        <mxCell id="1FAgS64xWaHGTDOJmmW1-5" value="&lt;font style=&quot;font-size: 32px;&quot;&gt;View&lt;/font&gt;" style="text;html=1;strokeColor=none;fillColor=none;align=center;verticalAlign=middle;whiteSpace=wrap;rounded=0;strokeWidth=1;" vertex="1" parent="1FAgS64xWaHGTDOJmmW1-8">
          <mxGeometry x="30" y="35" width="140" height="130" as="geometry" />
        </mxCell>
        <mxCell id="1FAgS64xWaHGTDOJmmW1-9" value="" style="group" vertex="1" connectable="0" parent="1">
          <mxGeometry x="740" y="540" width="200" height="200" as="geometry" />
        </mxCell>
        <mxCell id="1FAgS64xWaHGTDOJmmW1-2" value="" style="ellipse;whiteSpace=wrap;html=1;" vertex="1" parent="1FAgS64xWaHGTDOJmmW1-9">
          <mxGeometry width="200" height="200" as="geometry" />
        </mxCell>
        <mxCell id="1FAgS64xWaHGTDOJmmW1-6" value="&lt;font style=&quot;font-size: 32px;&quot;&gt;Controller&lt;br&gt;&lt;/font&gt;" style="text;html=1;strokeColor=none;fillColor=none;align=center;verticalAlign=middle;whiteSpace=wrap;rounded=0;strokeWidth=1;" vertex="1" parent="1FAgS64xWaHGTDOJmmW1-9">
          <mxGeometry x="30" y="35" width="140" height="130" as="geometry" />
        </mxCell>
        <mxCell id="1FAgS64xWaHGTDOJmmW1-10" value="" style="group" vertex="1" connectable="0" parent="1">
          <mxGeometry x="740" y="1190" width="200" height="200" as="geometry" />
        </mxCell>
        <mxCell id="1FAgS64xWaHGTDOJmmW1-1" value="" style="ellipse;whiteSpace=wrap;html=1;" vertex="1" parent="1FAgS64xWaHGTDOJmmW1-10">
          <mxGeometry width="200" height="200" as="geometry" />
        </mxCell>
        <mxCell id="1FAgS64xWaHGTDOJmmW1-4" value="&lt;font style=&quot;font-size: 32px;&quot;&gt;Database&lt;br&gt;&lt;/font&gt;" style="text;html=1;strokeColor=none;fillColor=none;align=center;verticalAlign=middle;whiteSpace=wrap;rounded=0;strokeWidth=1;" vertex="1" parent="1FAgS64xWaHGTDOJmmW1-10">
          <mxGeometry x="30" y="40" width="140" height="130" as="geometry" />
        </mxCell>
        <mxCell id="1FAgS64xWaHGTDOJmmW1-16" value="" style="group" vertex="1" connectable="0" parent="1">
          <mxGeometry x="590" y="150" width="80" height="80" as="geometry" />
        </mxCell>
        <mxCell id="1FAgS64xWaHGTDOJmmW1-14" value="" style="ellipse;whiteSpace=wrap;html=1;aspect=fixed;fontSize=32;strokeWidth=1;" vertex="1" parent="1FAgS64xWaHGTDOJmmW1-16">
          <mxGeometry width="80" height="80" as="geometry" />
        </mxCell>
        <mxCell id="1FAgS64xWaHGTDOJmmW1-15" value="JSP" style="text;html=1;strokeColor=none;fillColor=none;align=center;verticalAlign=middle;whiteSpace=wrap;rounded=0;fontSize=32;" vertex="1" parent="1FAgS64xWaHGTDOJmmW1-16">
          <mxGeometry x="10" y="25" width="60" height="30" as="geometry" />
        </mxCell>
        <mxCell id="1FAgS64xWaHGTDOJmmW1-26" value="" style="endArrow=classic;html=1;rounded=0;fontSize=12;entryX=0;entryY=1;entryDx=0;entryDy=0;" edge="1" parent="1FAgS64xWaHGTDOJmmW1-16" target="1FAgS64xWaHGTDOJmmW1-3">
          <mxGeometry width="50" height="50" relative="1" as="geometry">
            <mxPoint x="70" y="10" as="sourcePoint" />
            <mxPoint x="70" y="10" as="targetPoint" />
          </mxGeometry>
        </mxCell>
        <mxCell id="1FAgS64xWaHGTDOJmmW1-18" value="JSF" style="ellipse;whiteSpace=wrap;html=1;aspect=fixed;fontSize=32;strokeWidth=1;" vertex="1" parent="1">
          <mxGeometry x="800" y="160" width="80" height="80" as="geometry" />
        </mxCell>
        <mxCell id="1FAgS64xWaHGTDOJmmW1-22" value="&lt;font style=&quot;font-size: 12px;&quot;&gt;THYMELEAF&lt;/font&gt;" style="ellipse;whiteSpace=wrap;html=1;aspect=fixed;fontSize=32;strokeWidth=1;" vertex="1" parent="1">
          <mxGeometry x="1000" y="160" width="80" height="80" as="geometry" />
        </mxCell>
        <mxCell id="1FAgS64xWaHGTDOJmmW1-27" value="" style="endArrow=classic;html=1;rounded=0;fontSize=12;entryX=0.5;entryY=1;entryDx=0;entryDy=0;exitX=0.5;exitY=0;exitDx=0;exitDy=0;" edge="1" parent="1" source="1FAgS64xWaHGTDOJmmW1-18" target="1FAgS64xWaHGTDOJmmW1-3">
          <mxGeometry width="50" height="50" relative="1" as="geometry">
            <mxPoint x="680" y="180" as="sourcePoint" />
            <mxPoint x="779.2893218813454" y="20.71067811865464" as="targetPoint" />
          </mxGeometry>
        </mxCell>
        <mxCell id="1FAgS64xWaHGTDOJmmW1-28" value="" style="endArrow=classic;html=1;rounded=0;fontSize=12;entryX=1;entryY=1;entryDx=0;entryDy=0;" edge="1" parent="1" source="1FAgS64xWaHGTDOJmmW1-22" target="1FAgS64xWaHGTDOJmmW1-3">
          <mxGeometry width="50" height="50" relative="1" as="geometry">
            <mxPoint x="690" y="190" as="sourcePoint" />
            <mxPoint x="789.2893218813454" y="30.71067811865464" as="targetPoint" />
          </mxGeometry>
        </mxCell>
        <mxCell id="1FAgS64xWaHGTDOJmmW1-36" value="" style="group" vertex="1" connectable="0" parent="1">
          <mxGeometry x="1000" y="1040" width="80" height="80" as="geometry" />
        </mxCell>
        <mxCell id="1FAgS64xWaHGTDOJmmW1-37" value="" style="ellipse;whiteSpace=wrap;html=1;aspect=fixed;fontSize=32;strokeWidth=1;" vertex="1" parent="1FAgS64xWaHGTDOJmmW1-36">
          <mxGeometry width="80" height="80" as="geometry" />
        </mxCell>
        <mxCell id="1FAgS64xWaHGTDOJmmW1-38" value="&lt;font style=&quot;font-size: 13px;&quot;&gt;Hibernate&lt;/font&gt;" style="text;html=1;strokeColor=none;fillColor=none;align=center;verticalAlign=middle;whiteSpace=wrap;rounded=0;fontSize=32;" vertex="1" parent="1FAgS64xWaHGTDOJmmW1-36">
          <mxGeometry x="10" y="25" width="60" height="30" as="geometry" />
        </mxCell>
        <mxCell id="1FAgS64xWaHGTDOJmmW1-39" value="" style="endArrow=classic;html=1;rounded=0;fontSize=12;entryX=0;entryY=1;entryDx=0;entryDy=0;" edge="1" parent="1FAgS64xWaHGTDOJmmW1-36">
          <mxGeometry width="50" height="50" relative="1" as="geometry">
            <mxPoint x="70" y="10" as="sourcePoint" />
            <mxPoint x="70" y="10" as="targetPoint" />
          </mxGeometry>
        </mxCell>
        <mxCell id="1FAgS64xWaHGTDOJmmW1-40" value="" style="group" vertex="1" connectable="0" parent="1">
          <mxGeometry x="640" y="1040" width="80" height="80" as="geometry" />
        </mxCell>
        <mxCell id="1FAgS64xWaHGTDOJmmW1-41" value="" style="ellipse;whiteSpace=wrap;html=1;aspect=fixed;fontSize=32;strokeWidth=1;" vertex="1" parent="1FAgS64xWaHGTDOJmmW1-40">
          <mxGeometry width="80" height="80" as="geometry" />
        </mxCell>
        <mxCell id="1FAgS64xWaHGTDOJmmW1-42" value="&lt;font style=&quot;font-size: 16px;&quot;&gt;Mybatis&lt;/font&gt;" style="text;html=1;strokeColor=none;fillColor=none;align=center;verticalAlign=middle;whiteSpace=wrap;rounded=0;fontSize=32;" vertex="1" parent="1FAgS64xWaHGTDOJmmW1-40">
          <mxGeometry x="10" y="25" width="60" height="30" as="geometry" />
        </mxCell>
        <mxCell id="1FAgS64xWaHGTDOJmmW1-43" value="" style="endArrow=classic;html=1;rounded=0;fontSize=12;entryX=0;entryY=1;entryDx=0;entryDy=0;" edge="1" parent="1FAgS64xWaHGTDOJmmW1-40">
          <mxGeometry width="50" height="50" relative="1" as="geometry">
            <mxPoint x="70" y="10" as="sourcePoint" />
            <mxPoint x="70" y="10" as="targetPoint" />
          </mxGeometry>
        </mxCell>
        <mxCell id="1FAgS64xWaHGTDOJmmW1-45" value="" style="endArrow=classic;html=1;rounded=0;fontSize=13;" edge="1" parent="1" source="1FAgS64xWaHGTDOJmmW1-1" target="1FAgS64xWaHGTDOJmmW1-41">
          <mxGeometry width="50" height="50" relative="1" as="geometry">
            <mxPoint x="690" y="1190" as="sourcePoint" />
            <mxPoint x="740" y="1140" as="targetPoint" />
          </mxGeometry>
        </mxCell>
        <mxCell id="1FAgS64xWaHGTDOJmmW1-46" value="" style="endArrow=classic;html=1;rounded=0;fontSize=13;exitX=1;exitY=0;exitDx=0;exitDy=0;" edge="1" parent="1" source="1FAgS64xWaHGTDOJmmW1-1" target="1FAgS64xWaHGTDOJmmW1-37">
          <mxGeometry width="50" height="50" relative="1" as="geometry">
            <mxPoint x="710" y="1120" as="sourcePoint" />
            <mxPoint x="760" y="1070" as="targetPoint" />
          </mxGeometry>
        </mxCell>
      </root>
    </mxGraphModel>
  </diagram>
</mxfile>
